<svg xmlns="http://www.w3.org/2000/svg" xmlns:xlink="http://www.w3.org/1999/xlink" viewBox="0,0,256,256" width="64px" height="64px"><g fill="#ffffff" fill-rule="nonzero" stroke="none" stroke-width="1" stroke-linecap="butt" stroke-linejoin="miter" stroke-miterlimit="10" stroke-dasharray="" stroke-dashoffset="0" font-family="none" font-weight="none" font-size="none" text-anchor="none" style="mix-blend-mode: normal"><g transform="scale(4,4)"><path d="M40.86719,4.83008c-0.34582,0.02431 -0.69256,0.07798 -1.03906,0.16211l-0.31445,0.07813c-1.824,0.444 -3.32419,1.67123 -4.11719,3.36523l-0.99609,2.11719c-0.71257,-1.20935 -2.16359,-1.85448 -3.58984,-1.4668l-9.49023,2.67773c-1.698,0.463 -2.70223,2.22192 -2.24023,3.91992c0.00298,0.01092 0.00863,0.02039 0.01172,0.03125l-3.43359,-2.13477c-1.48,-0.92 -3.34384,-1.16169 -4.96484,-0.67969c-2.789,0.806 -4.61922,3.38664 -4.44922,6.30664l2.44727,28.28906c0.155,2.777 1.59933,5.20895 3.86133,6.50195c1.226,0.703 2.58203,1.0625 3.95703,1.0625c0.705,0 1.41428,-0.09516 2.11328,-0.28516l0.94141,-0.25781l0.02148,0.06055c0.591,1.901 1.88744,3.45495 3.64844,4.37695c1.062,0.558 2.25608,0.85547 3.45508,0.85547c0.771,0 1.51884,-0.11498 2.21484,-0.33398c1.893,-0.586 3.446,-1.87577 4.375,-3.63477c0.21943,-0.41521 0.39472,-0.84577 0.53125,-1.2832c0.30198,0.31519 0.63235,0.60323 1.01953,0.82422c0.682,0.389 1.43622,0.58789 2.19922,0.58789c0.403,0 0.80803,-0.05602 1.20703,-0.16602c1.094,-0.308 2.00642,-1.00113 2.60742,-1.95313c0.721,0.172 1.48289,0.15913 2.21289,-0.04687c1.64416,-0.46009 2.81161,-1.81252 3.18945,-3.41992l1.05273,3.51367c0.519,1.906 2.25362,3.16211 4.14063,3.16211c0.373,0 0.75,-0.04934 1.125,-0.15234c2.282,-0.622 3.63191,-2.98401 3.00391,-5.29102l-1.91406,-6.38672l1.07813,-0.29297c1.806,-0.49 3.39742,-1.61673 4.48242,-3.17773c1.626,-2.368 1.75384,-5.51903 0.33984,-8.20703l-12.78906,-25.43555c-1.15062,-2.198 -3.47774,-3.45728 -5.89844,-3.28711zM41.00781,6.82227c1.63565,-0.11289 3.20764,0.73441 3.97852,2.20703l12.79102,25.43945c1.059,2.013 0.97697,4.42834 -0.20703,6.15234c-0.814,1.17 -2.00828,2.01972 -3.36328,2.38672l-20.82227,5.67969l-0.00195,-0.00781c-0.219,-0.774 -0.72859,-1.41273 -1.43359,-1.80273c-0.702,-0.389 -1.51053,-0.48081 -2.26953,-0.25781c-0.774,0.219 -1.41373,0.72673 -1.80273,1.42773c-0.37658,0.67939 -0.46907,1.46224 -0.27148,2.20898l-3.78711,1.0293c-0.01232,0.00335 -0.02112,0.01185 -0.0332,0.01563c-0.00781,0.00248 -0.01565,0.00122 -0.02344,0.00391c-0.04233,0.01425 -0.07228,0.0453 -0.11133,0.06445c-0.07522,0.03689 -0.15086,0.07025 -0.21289,0.12305c-0.03857,0.03269 -0.06286,0.07554 -0.0957,0.11328c-0.05095,0.05859 -0.10459,0.11319 -0.14062,0.18164c-0.02666,0.05042 -0.03691,0.10585 -0.05469,0.16016c-0.02177,0.06668 -0.04735,0.13043 -0.05469,0.20117c-0.00633,0.05934 0.00714,0.11909 0.01172,0.17969c0.00478,0.06215 -0.00524,0.12319 0.01172,0.18555c0.00349,0.01279 0.01168,0.02262 0.01563,0.03516c0.00242,0.00782 0.00128,0.01563 0.00391,0.02344l0.28516,0.8418c0.271,0.859 0.86459,1.56981 1.68359,2.00781c0.811,0.419 1.73823,0.50333 2.61523,0.23633c1.814,-0.563 2.83139,-2.49806 2.27539,-4.28906l-0.45117,-1.5957c-0.075,-0.257 -0.04597,-0.52386 0.08203,-0.75586c0.128,-0.232 0.34142,-0.39961 0.60742,-0.47461c0.252,-0.075 0.518,-0.04402 0.75,0.08398c0.234,0.129 0.40161,0.34161 0.47461,0.59961l0.44727,1.57227c0.424,1.366 0.28542,2.82442 -0.39258,4.10742c-0.68,1.286 -1.81608,2.23111 -3.20508,2.66211c-1.295,0.41 -2.86258,0.29019 -4.14258,-0.38281c-1.289,-0.675 -2.23759,-1.81019 -2.68359,-3.24219l-0.34961,-0.9707c-0.0187,-0.0521 -0.05603,-0.08985 -0.08203,-0.13672c-0.03257,-0.05866 -0.05886,-0.11991 -0.10156,-0.16992c-0.04441,-0.05225 -0.09901,-0.08934 -0.15234,-0.13086c-0.04825,-0.03762 -0.09232,-0.07725 -0.14648,-0.10547c-0.05956,-0.0311 -0.12282,-0.04584 -0.1875,-0.06445c-0.05874,-0.01703 -0.11412,-0.03893 -0.17578,-0.04492c-0.06809,-0.00657 -0.13564,0.00771 -0.20508,0.01563c-0.05177,0.0057 -0.10246,-0.00443 -0.1543,0.00977l-1.83008,0.5c-1.543,0.424 -3.15883,0.21402 -4.54883,-0.58398c-1.672,-0.956 -2.74233,-2.77825 -2.86133,-4.90625l-2.44727,-28.29297c-0.114,-1.953 1.12453,-3.69714 3.01953,-4.24414c1.105,-0.329 2.34575,-0.15806 3.34375,0.46094l5.67969,3.53125c0.236,0.147 0.52302,0.18723 0.79102,0.11523l12.86133,-3.51172c0.283,-0.077 0.51563,-0.27211 0.64063,-0.53711l2.63086,-5.59375c0.536,-1.144 1.54911,-1.97144 2.78711,-2.27344l0.3125,-0.07812c0.23412,-0.05625 0.46946,-0.09325 0.70312,-0.10937zM31.81836,10.98047c0.46106,0.06234 0.86244,0.39169 0.99219,0.86719c0.173,0.635 -0.2027,1.29275 -0.8457,1.46875l-9.49023,2.67774c-0.305,0.084 -0.6273,0.04276 -0.9043,-0.11524c-0.277,-0.159 -0.47559,-0.4137 -0.55859,-0.7207c-0.173,-0.635 0.2017,-1.29275 0.8457,-1.46875l9.48828,-2.67773c0.15925,-0.043 0.31897,-0.05203 0.47266,-0.03125zM36.04688,18.35938c-0.12878,-0.01733 -0.26323,-0.00916 -0.39648,0.02734c-0.533,0.145 -0.84812,0.69356 -0.70312,1.22656l0.52734,1.93164c0.145,0.533 0.69356,0.84617 1.22656,0.70117c0.533,-0.145 0.84813,-0.69552 0.70313,-1.22852l-0.52539,-1.92969c-0.10875,-0.39975 -0.44569,-0.67653 -0.83203,-0.72852zM31.22266,19.67383c-0.12878,-0.01733 -0.26323,-0.00916 -0.39648,0.02734c-0.533,0.145 -0.84812,0.69552 -0.70312,1.22852l0.52734,1.92969c0.145,0.533 0.69552,0.84617 1.22852,0.70117c0.533,-0.145 0.84617,-0.69552 0.70117,-1.22852l-0.52539,-1.92969c-0.10875,-0.39975 -0.44569,-0.67653 -0.83203,-0.72852zM26.39844,20.99023c-0.12878,-0.01738 -0.26323,-0.01086 -0.39648,0.02539c-0.533,0.145 -0.84617,0.69552 -0.70117,1.22852l0.52539,1.92969c0.145,0.533 0.69552,0.84812 1.22852,0.70313c0.533,-0.145 0.84617,-0.69552 0.70117,-1.22852l-0.52539,-1.92969c-0.10875,-0.39975 -0.44569,-0.67639 -0.83203,-0.72852zM21.57422,22.30273c-0.12878,-0.01738 -0.26323,-0.00891 -0.39648,0.02734c-0.533,0.145 -0.84617,0.69552 -0.70117,1.22852l0.52539,1.92969c0.146,0.533 0.69652,0.84617 1.22852,0.70117c0.533,-0.145 0.84617,-0.69356 0.70117,-1.22656l-0.52539,-1.93164c-0.10875,-0.39975 -0.44569,-0.67639 -0.83203,-0.72852zM39.92578,23.44727c-0.26644,-0.00264 -0.53473,0.01689 -0.80273,0.05664c-0.217,0.034 -0.43583,0.07958 -0.67383,0.14258l-16.28711,4.74219c-0.21,0.055 -0.41328,0.12222 -0.61328,0.19922c-2.123,0.82 -3.50731,2.98663 -3.44531,5.39063c0.104,4.058 0.26366,6.50253 0.47266,7.26953c0.502,1.841 1.69066,3.37722 3.34766,4.32422c1.094,0.625 2.30425,0.94336 3.53125,0.94336c0.631,0 1.26663,-0.08486 1.89063,-0.25586l15.98633,-4.35742c1.84,-0.502 3.37527,-1.69166 4.32227,-3.34766c0.946,-1.656 1.19259,-3.58222 0.68359,-5.44922c-0.225,-0.829 -1.47866,-3.14109 -3.72266,-6.87109c-1.04387,-1.73425 -2.82435,-2.76862 -4.68945,-2.78711zM39.86328,25.44727c1.181,0 2.36111,0.69431 3.03711,1.82031c2.389,3.97 3.37667,5.89058 3.51367,6.39258c0.361,1.325 0.18686,2.7123 -0.49414,3.9043c-0.681,1.192 -1.78828,2.0472 -3.11328,2.4082l-15.98828,4.35742c-1.323,0.363 -2.7113,0.18786 -3.9043,-0.49414c-1.192,-0.681 -2.0472,-1.78828 -2.4082,-3.11328c-0.121,-0.446 -0.29134,-2.46492 -0.40234,-6.79492c-0.04,-1.563 0.83001,-2.95861 2.16602,-3.47461c0.135,-0.052 0.27259,-0.09662 0.43359,-0.14062l16.28516,-4.74023c0.143,-0.039 0.28759,-0.0708 0.43359,-0.0918c0.146,-0.022 0.29441,-0.0332 0.44141,-0.0332zM37.93164,30.06641c-0.14535,0.00931 -0.29345,0.03252 -0.43945,0.07227c-1.168,0.319 -1.85706,1.52341 -1.53906,2.69141l0.68164,2.49805c0.318,1.169 1.52341,1.85806 2.69141,1.53906c1.168,-0.319 1.85706,-1.52341 1.53906,-2.69141l-0.67969,-2.49805c-0.27913,-1.022 -1.23643,-1.67652 -2.25391,-1.61133zM27.60742,32.88086c-0.14535,0.00931 -0.2915,0.03252 -0.4375,0.07227c-1.168,0.319 -1.85706,1.52536 -1.53906,2.69336l0.68164,2.49609c0.318,1.168 1.52241,1.85706 2.69141,1.53906c1.168,-0.319 1.85706,-1.52341 1.53906,-2.69141l-0.68164,-2.49805c-0.27913,-1.022 -1.23643,-1.67652 -2.25391,-1.61133zM51.72461,45.75781l1.92188,6.41016c0.332,1.219 -0.38942,2.4805 -1.60742,2.8125c-1.22,0.333 -2.47741,-0.38886 -2.81641,-1.63086l-1.91406,-6.38867zM44.0918,47.83984l0.21484,0.74219c0.375,1.436 -0.42702,2.91488 -1.79102,3.29688c-0.58,0.163 -1.1888,0.10684 -1.7168,-0.16016c-0.253,-0.129 -0.55241,-0.14306 -0.81641,-0.03906c-0.265,0.104 -0.47227,0.31503 -0.57227,0.58203c-0.3,0.804 -0.92484,1.39519 -1.71484,1.61719c-0.636,0.177 -1.30005,0.09458 -1.87305,-0.23242c-0.612,-0.35 -1.05209,-0.93311 -1.24609,-1.66211l-0.41406,-1.4375zM28.12891,52.18555c0.03753,0.2919 -0.01428,0.58749 -0.1543,0.85352c-0.18,0.342 -0.4817,0.59403 -0.8457,0.70703c-0.37,0.111 -0.7637,0.0763 -1.0957,-0.0957c-0.29754,-0.15874 -0.52113,-0.40959 -0.6543,-0.7168z"></path></g></g></svg>